<?xml version="1.0" encoding="utf-8"?>
<!-- Generator: Adobe Illustrator 15.0.2, SVG Export Plug-In . SVG Version: 6.00 Build 0)  -->
<!DOCTYPE svg PUBLIC "-//W3C//DTD SVG 1.1//EN" "http://www.w3.org/Graphics/SVG/1.1/DTD/svg11.dtd">
<svg version="1.1" xmlns="http://www.w3.org/2000/svg" xmlns:xlink="http://www.w3.org/1999/xlink" x="0px" y="0px" width="322px"
	 height="141px" viewBox="0 0 322 141" enable-background="new 0 0 322 141" xml:space="preserve">
<g id="ASSEGAI">
	<g>
		<g>
			<path fill="#1E417D" d="M48.534,47.706H21.519l-1.836,4.512c-2.728,6.54-4.092,10.806-4.092,12.799
				c0,2.134,0.726,3.751,2.177,4.853c1.451,1.102,3.313,1.652,5.586,1.652v2.413H2.215v-2.413c3.147-0.489,5.49-1.6,7.029-3.331
				c1.539-1.73,3.392-5.377,5.561-10.938c0.174-0.524,1.014-2.552,2.518-6.084L37.99,1.807h2.046l23.763,56.496l3.252,7.448
				c0.734,1.679,1.722,2.999,2.964,3.961c1.241,0.962,3.103,1.565,5.586,1.81v2.413H47.643v-2.413c3.427,0,5.744-0.253,6.95-0.761
				c1.207-0.506,1.81-1.512,1.81-3.016c0-0.77-0.805-3.061-2.413-6.872L48.534,47.706z M47.643,45.346l-12.59-30.319L22.516,45.346
				H47.643z"/>
			<path fill="#1E417D" d="M79.274,75.299V61.188h2.046c2.377,8.149,6.626,12.223,12.747,12.223c2.657,0,4.643-0.805,5.954-2.413
				c1.311-1.608,1.967-3.374,1.967-5.298c0-2.238-0.7-4.074-2.098-5.508c-1.434-1.434-4.214-3.165-8.34-5.193
				c-4.337-2.133-7.449-4.231-9.337-6.295c-1.889-2.028-2.833-4.528-2.833-7.501c0-2.833,1.014-5.534,3.042-8.104
				c2.027-2.571,4.878-3.856,8.55-3.856c3.742,0,6.836,1.521,9.285,4.564c0.524-0.524,1.207-1.801,2.046-3.83h1.941v13.271h-1.941
				c-0.7-3.182-2.055-5.918-4.065-8.209c-2.011-2.29-4.38-3.436-7.108-3.436c-2.098,0-3.795,0.647-5.088,1.94
				c-1.294,1.294-1.941,2.799-1.941,4.512c0,1.888,0.716,3.515,2.151,4.878c1.398,1.399,4.074,2.99,8.026,4.773
				c5.945,2.693,9.582,5.316,10.911,7.869c1.328,2.588,1.993,5.07,1.993,7.448c0,3.742-1.233,6.785-3.698,9.128
				c-2.465,2.342-5.569,3.515-9.311,3.515c-3.952,0-7.467-1.627-10.543-4.879c-0.944,1.049-1.714,2.554-2.308,4.512H79.274z"/>
			<path fill="#1E417D" d="M115.102,75.299V61.188h2.046c2.377,8.149,6.626,12.223,12.746,12.223c2.657,0,4.643-0.805,5.954-2.413
				s1.967-3.374,1.967-5.298c0-2.238-0.699-4.074-2.098-5.508c-1.435-1.434-4.215-3.165-8.341-5.193
				c-4.337-2.133-7.449-4.231-9.337-6.295c-1.889-2.028-2.833-4.528-2.833-7.501c0-2.833,1.014-5.534,3.043-8.104
				c2.027-2.571,4.878-3.856,8.55-3.856c3.742,0,6.837,1.521,9.285,4.564c0.524-0.524,1.206-1.801,2.046-3.83h1.94v13.271h-1.94
				c-0.7-3.182-2.055-5.918-4.065-8.209c-2.012-2.29-4.38-3.436-7.108-3.436c-2.098,0-3.795,0.647-5.088,1.94
				c-1.294,1.294-1.941,2.799-1.941,4.512c0,1.888,0.717,3.515,2.151,4.878c1.398,1.399,4.073,2.99,8.025,4.773
				c5.945,2.693,9.582,5.316,10.911,7.869c1.328,2.588,1.993,5.07,1.993,7.448c0,3.742-1.232,6.785-3.698,9.128
				c-2.465,2.342-5.569,3.515-9.311,3.515c-3.952,0-7.467-1.627-10.544-4.879c-0.944,1.049-1.714,2.554-2.308,4.512H115.102z"/>
			<path fill="#1E417D" d="M189.483,45.503h-29.952c-0.141,2.064-0.21,3.603-0.21,4.616c0,7.554,1.18,13.229,3.541,17.022
				c2.36,3.795,5.883,5.691,10.569,5.691c6.364,0,10.876-2.85,13.534-8.551h2.518c-1.119,3.567-3.34,6.356-6.662,8.367
				s-6.942,3.017-10.858,3.017c-3.638,0-7.073-0.918-10.308-2.754c-3.235-1.836-5.884-4.433-7.947-7.79s-3.095-7.431-3.095-12.223
				c0-6.784,1.993-12.423,5.98-16.917c3.986-4.493,8.97-6.741,14.95-6.741c5.63,0,9.983,1.714,13.062,5.142
				C187.682,37.811,189.309,41.517,189.483,45.503z M180.304,43.405c0.104-0.805,0.157-1.521,0.157-2.151
				c0-3.076-0.9-5.463-2.701-7.16c-1.802-1.695-4.013-2.544-6.636-2.544c-6.365,0-10.159,3.952-11.383,11.855H180.304z"/>
			<path fill="#1E417D" d="M230.399,34.75c2.973-3.357,5.98-5.036,9.022-5.036c1.679,0,2.981,0.455,3.908,1.364
				c0.926,0.909,1.391,1.906,1.391,2.989c0,2.309-1.05,3.463-3.147,3.463c-1.154,0-2.151-0.717-2.99-2.151
				c-0.77-1.328-1.574-1.993-2.413-1.993c-1.329,0-2.798,0.91-4.406,2.728c1.817,2.868,2.728,5.91,2.728,9.128
				c0,4.196-1.504,7.903-4.512,11.12c-3.008,3.253-8.078,5.002-15.212,5.246c-7.414,0.245-11.121,1.749-11.121,4.511
				c0,1.295,0.84,2.203,2.519,2.729c1.644,0.56,5.105,0.979,10.386,1.259c5.771,0.28,10.211,0.812,13.324,1.6
				c3.112,0.787,5.595,2.369,7.449,4.747c1.853,2.378,2.78,5.211,2.78,8.498c0,4.616-1.889,8.341-5.666,11.174
				c-3.776,2.832-9.215,4.249-16.313,4.249c-6.505,0-11.716-1.26-15.632-3.777c-3.917-2.518-5.876-5.7-5.876-9.547
				c0-2.134,0.56-3.882,1.679-5.246c1.119-1.363,2.71-2.046,4.773-2.046c0.56,0,1.066,0.087,1.521,0.263
				c-2.169,2.378-3.252,4.896-3.252,7.554c0,3.077,1.442,5.621,4.327,7.633c2.886,2.01,7.195,3.016,12.931,3.016
				c5.105,0,9.083-1.022,11.935-3.068c2.85-2.046,4.274-4.66,4.274-7.843c0-3.497-1.276-5.963-3.829-7.396
				c-2.553-1.399-7.1-2.239-13.639-2.519c-7.52-0.314-12.397-1.241-14.636-2.78c-2.238-1.503-3.356-3.443-3.356-5.822
				c0-4.581,3.199-7.466,9.6-8.655c-3.323-1.958-5.823-4.196-7.502-6.715c-1.679-2.518-2.518-5.332-2.518-8.445
				c0-4.371,1.722-8.086,5.167-11.146c3.444-3.061,7.527-4.591,12.248-4.591C222.182,29.241,226.867,31.078,230.399,34.75z
				 M206.794,46.186c0,4.511,0.927,7.815,2.78,9.914c1.854,2.098,4.214,3.147,7.082,3.147c2.657,0,4.938-1.04,6.846-3.121
				c1.905-2.081,2.858-5.692,2.858-10.833c0-5.175-1.015-8.742-3.042-10.701c-2.029-1.958-4.319-2.938-6.872-2.938
				c-3.218,0-5.631,1.207-7.239,3.62S206.794,41.324,206.794,46.186z"/>
			<path fill="#1E417D" d="M292.299,66.066h1.941c-0.315,5.979-3.253,8.97-8.812,8.97c-2.379,0-4.259-0.63-5.64-1.889
				c-1.382-1.259-2.281-3.129-2.701-5.612c-3.497,2.483-6.688,4.354-9.573,5.612c-2.886,1.259-5.465,1.889-7.737,1.889
				c-2.903,0-5.403-0.839-7.502-2.518c-2.098-1.679-3.146-3.899-3.146-6.662c0-3.602,1.757-6.749,5.271-9.442
				c3.515-2.692,8.367-5.315,14.557-7.868l8.131-3.305v-2.099c0-2.972-0.192-5.123-0.577-6.452c-0.386-1.328-1.382-2.518-2.99-3.567
				c-1.608-1.049-3.725-1.573-6.347-1.573c-5.246,0-8.166,1.749-8.761,5.245c-0.56,3.567-2.028,5.351-4.406,5.351
				c-2.134,0-3.2-1.014-3.2-3.042c0-1.993,1.417-4.135,4.249-6.426c2.833-2.29,7.239-3.437,13.22-3.437
				c4.44,0,7.886,0.7,10.334,2.099c2.447,1.399,4.065,2.99,4.852,4.773c0.787,1.784,1.181,4.512,1.181,8.184V61.66
				c0,4.057,0.21,6.661,0.629,7.815c0.42,1.154,1.329,1.731,2.729,1.731C290.306,71.207,291.739,69.494,292.299,66.066z
				 M277.087,47.706l-5.718,2.309c-9.022,3.672-13.534,8.288-13.534,13.849c0,2.203,0.577,3.979,1.731,5.324
				c1.154,1.347,2.657,2.02,4.511,2.02c1.644,0,3.55-0.542,5.718-1.626s4.599-2.71,7.292-4.879V47.706z"/>
			<path fill="#1E417D" d="M312.651,29.241v29.953c0,4.582,0.069,7.467,0.21,8.655c0.14,1.189,0.646,2.099,1.521,2.728
				c0.873,0.63,2.43,0.944,4.668,0.944h1.102v2.413H297.02v-2.413h1.783c2.482,0,4.1-0.358,4.853-1.075
				c0.752-0.717,1.188-1.574,1.312-2.57c0.122-0.997,0.184-3.89,0.184-8.682V46.186c0-5.036-0.236-8.113-0.708-9.232
				c-0.473-1.119-1.102-1.818-1.889-2.099c-0.787-0.279-2.16-0.42-4.118-0.42h-1.416v-2.413c6.225-0.629,11.05-1.556,14.478-2.78
				H312.651z M302.527,7.314c0-1.503,0.533-2.797,1.6-3.882c1.066-1.083,2.352-1.626,3.855-1.626s2.78,0.543,3.83,1.626
				c1.049,1.085,1.573,2.379,1.573,3.882c0,1.54-0.524,2.852-1.573,3.935c-1.05,1.084-2.326,1.626-3.83,1.626
				s-2.789-0.542-3.855-1.626C303.061,10.166,302.527,8.854,302.527,7.314z"/>
		</g>
		<g>
			<path fill="#1E417D" d="M48.534,47.706H21.519l-1.836,4.512c-2.728,6.54-4.092,10.806-4.092,12.799
				c0,2.134,0.726,3.751,2.177,4.853c1.451,1.102,3.313,1.652,5.586,1.652v2.413H2.215v-2.413c3.147-0.489,5.49-1.6,7.029-3.331
				c1.539-1.73,3.392-5.377,5.561-10.938c0.174-0.524,1.014-2.552,2.518-6.084L37.99,1.807h2.046l23.763,56.496l3.252,7.448
				c0.734,1.679,1.722,2.999,2.964,3.961c1.241,0.962,3.103,1.565,5.586,1.81v2.413H47.643v-2.413c3.427,0,5.744-0.253,6.95-0.761
				c1.207-0.506,1.81-1.512,1.81-3.016c0-0.77-0.805-3.061-2.413-6.872L48.534,47.706z M47.643,45.346l-12.59-30.319L22.516,45.346
				H47.643z"/>
			<path fill="#1E417D" d="M79.274,75.299V61.188h2.046c2.377,8.149,6.626,12.223,12.747,12.223c2.657,0,4.643-0.805,5.954-2.413
				c1.311-1.608,1.967-3.374,1.967-5.298c0-2.238-0.7-4.074-2.098-5.508c-1.434-1.434-4.214-3.165-8.34-5.193
				c-4.337-2.133-7.449-4.231-9.337-6.295c-1.889-2.028-2.833-4.528-2.833-7.501c0-2.833,1.014-5.534,3.042-8.104
				c2.027-2.571,4.878-3.856,8.55-3.856c3.742,0,6.836,1.521,9.285,4.564c0.524-0.524,1.207-1.801,2.046-3.83h1.941v13.271h-1.941
				c-0.7-3.182-2.055-5.918-4.065-8.209c-2.011-2.29-4.38-3.436-7.108-3.436c-2.098,0-3.795,0.647-5.088,1.94
				c-1.294,1.294-1.941,2.799-1.941,4.512c0,1.888,0.716,3.515,2.151,4.878c1.398,1.399,4.074,2.99,8.026,4.773
				c5.945,2.693,9.582,5.316,10.911,7.869c1.328,2.588,1.993,5.07,1.993,7.448c0,3.742-1.233,6.785-3.698,9.128
				c-2.465,2.342-5.569,3.515-9.311,3.515c-3.952,0-7.467-1.627-10.543-4.879c-0.944,1.049-1.714,2.554-2.308,4.512H79.274z"/>
			<path fill="#1E417D" d="M115.102,75.299V61.188h2.046c2.377,8.149,6.626,12.223,12.746,12.223c2.657,0,4.643-0.805,5.954-2.413
				s1.967-3.374,1.967-5.298c0-2.238-0.699-4.074-2.098-5.508c-1.435-1.434-4.215-3.165-8.341-5.193
				c-4.337-2.133-7.449-4.231-9.337-6.295c-1.889-2.028-2.833-4.528-2.833-7.501c0-2.833,1.014-5.534,3.043-8.104
				c2.027-2.571,4.878-3.856,8.55-3.856c3.742,0,6.837,1.521,9.285,4.564c0.524-0.524,1.206-1.801,2.046-3.83h1.94v13.271h-1.94
				c-0.7-3.182-2.055-5.918-4.065-8.209c-2.012-2.29-4.38-3.436-7.108-3.436c-2.098,0-3.795,0.647-5.088,1.94
				c-1.294,1.294-1.941,2.799-1.941,4.512c0,1.888,0.717,3.515,2.151,4.878c1.398,1.399,4.073,2.99,8.025,4.773
				c5.945,2.693,9.582,5.316,10.911,7.869c1.328,2.588,1.993,5.07,1.993,7.448c0,3.742-1.232,6.785-3.698,9.128
				c-2.465,2.342-5.569,3.515-9.311,3.515c-3.952,0-7.467-1.627-10.544-4.879c-0.944,1.049-1.714,2.554-2.308,4.512H115.102z"/>
			<path fill="#1E417D" d="M189.483,45.503h-29.952c-0.141,2.064-0.21,3.603-0.21,4.616c0,7.554,1.18,13.229,3.541,17.022
				c2.36,3.795,5.883,5.691,10.569,5.691c6.364,0,10.876-2.85,13.534-8.551h2.518c-1.119,3.567-3.34,6.356-6.662,8.367
				s-6.942,3.017-10.858,3.017c-3.638,0-7.073-0.918-10.308-2.754c-3.235-1.836-5.884-4.433-7.947-7.79s-3.095-7.431-3.095-12.223
				c0-6.784,1.993-12.423,5.98-16.917c3.986-4.493,8.97-6.741,14.95-6.741c5.63,0,9.983,1.714,13.062,5.142
				C187.682,37.811,189.309,41.517,189.483,45.503z M180.304,43.405c0.104-0.805,0.157-1.521,0.157-2.151
				c0-3.076-0.9-5.463-2.701-7.16c-1.802-1.695-4.013-2.544-6.636-2.544c-6.365,0-10.159,3.952-11.383,11.855H180.304z"/>
			<path fill="#1E417D" d="M230.399,34.75c2.973-3.357,5.98-5.036,9.022-5.036c1.679,0,2.981,0.455,3.908,1.364
				c0.926,0.909,1.391,1.906,1.391,2.989c0,2.309-1.05,3.463-3.147,3.463c-1.154,0-2.151-0.717-2.99-2.151
				c-0.77-1.328-1.574-1.993-2.413-1.993c-1.329,0-2.798,0.91-4.406,2.728c1.817,2.868,2.728,5.91,2.728,9.128
				c0,4.196-1.504,7.903-4.512,11.12c-3.008,3.253-8.078,5.002-15.212,5.246c-7.414,0.245-11.121,1.749-11.121,4.511
				c0,1.295,0.84,2.203,2.519,2.729c1.644,0.56,5.105,0.979,10.386,1.259c5.771,0.28,10.211,0.812,13.324,1.6
				c3.112,0.787,5.595,2.369,7.449,4.747c1.853,2.378,2.78,5.211,2.78,8.498c0,4.616-1.889,8.341-5.666,11.174
				c-3.776,2.832-9.215,4.249-16.313,4.249c-6.505,0-11.716-1.26-15.632-3.777c-3.917-2.518-5.876-5.7-5.876-9.547
				c0-2.134,0.56-3.882,1.679-5.246c1.119-1.363,2.71-2.046,4.773-2.046c0.56,0,1.066,0.087,1.521,0.263
				c-2.169,2.378-3.252,4.896-3.252,7.554c0,3.077,1.442,5.621,4.327,7.633c2.886,2.01,7.195,3.016,12.931,3.016
				c5.105,0,9.083-1.022,11.935-3.068c2.85-2.046,4.274-4.66,4.274-7.843c0-3.497-1.276-5.963-3.829-7.396
				c-2.553-1.399-7.1-2.239-13.639-2.519c-7.52-0.314-12.397-1.241-14.636-2.78c-2.238-1.503-3.356-3.443-3.356-5.822
				c0-4.581,3.199-7.466,9.6-8.655c-3.323-1.958-5.823-4.196-7.502-6.715c-1.679-2.518-2.518-5.332-2.518-8.445
				c0-4.371,1.722-8.086,5.167-11.146c3.444-3.061,7.527-4.591,12.248-4.591C222.182,29.241,226.867,31.078,230.399,34.75z
				 M206.794,46.186c0,4.511,0.927,7.815,2.78,9.914c1.854,2.098,4.214,3.147,7.082,3.147c2.657,0,4.938-1.04,6.846-3.121
				c1.905-2.081,2.858-5.692,2.858-10.833c0-5.175-1.015-8.742-3.042-10.701c-2.029-1.958-4.319-2.938-6.872-2.938
				c-3.218,0-5.631,1.207-7.239,3.62S206.794,41.324,206.794,46.186z"/>
			<path fill="#1E417D" d="M292.299,66.066h1.941c-0.315,5.979-3.253,8.97-8.812,8.97c-2.379,0-4.259-0.63-5.64-1.889
				c-1.382-1.259-2.281-3.129-2.701-5.612c-3.497,2.483-6.688,4.354-9.573,5.612c-2.886,1.259-5.465,1.889-7.737,1.889
				c-2.903,0-5.403-0.839-7.502-2.518c-2.098-1.679-3.146-3.899-3.146-6.662c0-3.602,1.757-6.749,5.271-9.442
				c3.515-2.692,8.367-5.315,14.557-7.868l8.131-3.305v-2.099c0-2.972-0.192-5.123-0.577-6.452c-0.386-1.328-1.382-2.518-2.99-3.567
				c-1.608-1.049-3.725-1.573-6.347-1.573c-5.246,0-8.166,1.749-8.761,5.245c-0.56,3.567-2.028,5.351-4.406,5.351
				c-2.134,0-3.2-1.014-3.2-3.042c0-1.993,1.417-4.135,4.249-6.426c2.833-2.29,7.239-3.437,13.22-3.437
				c4.44,0,7.886,0.7,10.334,2.099c2.447,1.399,4.065,2.99,4.852,4.773c0.787,1.784,1.181,4.512,1.181,8.184V61.66
				c0,4.057,0.21,6.661,0.629,7.815c0.42,1.154,1.329,1.731,2.729,1.731C290.306,71.207,291.739,69.494,292.299,66.066z
				 M277.087,47.706l-5.718,2.309c-9.022,3.672-13.534,8.288-13.534,13.849c0,2.203,0.577,3.979,1.731,5.324
				c1.154,1.347,2.657,2.02,4.511,2.02c1.644,0,3.55-0.542,5.718-1.626s4.599-2.71,7.292-4.879V47.706z"/>
			<path fill="#1E417D" d="M312.651,29.241v29.953c0,4.582,0.069,7.467,0.21,8.655c0.14,1.189,0.646,2.099,1.521,2.728
				c0.873,0.63,2.43,0.944,4.668,0.944h1.102v2.413H297.02v-2.413h1.783c2.482,0,4.1-0.358,4.853-1.075
				c0.752-0.717,1.188-1.574,1.312-2.57c0.122-0.997,0.184-3.89,0.184-8.682V46.186c0-5.036-0.236-8.113-0.708-9.232
				c-0.473-1.119-1.102-1.818-1.889-2.099c-0.787-0.279-2.16-0.42-4.118-0.42h-1.416v-2.413c6.225-0.629,11.05-1.556,14.478-2.78
				H312.651z M302.527,7.314c0-1.503,0.533-2.797,1.6-3.882c1.066-1.083,2.352-1.626,3.855-1.626s2.78,0.543,3.83,1.626
				c1.049,1.085,1.573,2.379,1.573,3.882c0,1.54-0.524,2.852-1.573,3.935c-1.05,1.084-2.326,1.626-3.83,1.626
				s-2.789-0.542-3.855-1.626C303.061,10.166,302.527,8.854,302.527,7.314z"/>
		</g>
		<g>
			<path fill="none" stroke="#1E417D" stroke-width="2" stroke-miterlimit="10" d="M48.534,47.706H21.519l-1.836,4.512
				c-2.728,6.54-4.092,10.806-4.092,12.799c0,2.134,0.726,3.751,2.177,4.853c1.451,1.102,3.313,1.652,5.586,1.652v2.413H2.215
				v-2.413c3.147-0.489,5.49-1.6,7.029-3.331c1.539-1.73,3.392-5.377,5.561-10.938c0.174-0.524,1.014-2.552,2.518-6.084L37.99,1.807
				h2.046l23.763,56.496l3.252,7.448c0.734,1.679,1.722,2.999,2.964,3.961c1.241,0.962,3.103,1.565,5.586,1.81v2.413H47.643v-2.413
				c3.427,0,5.744-0.253,6.95-0.761c1.207-0.506,1.81-1.512,1.81-3.016c0-0.77-0.805-3.061-2.413-6.872L48.534,47.706z
				 M47.643,45.346l-12.59-30.319L22.516,45.346H47.643z"/>
			<path fill="none" stroke="#1E417D" stroke-width="2" stroke-miterlimit="10" d="M79.274,75.299V61.188h2.046
				c2.377,8.149,6.626,12.223,12.747,12.223c2.657,0,4.643-0.805,5.954-2.413c1.311-1.608,1.967-3.374,1.967-5.298
				c0-2.238-0.7-4.074-2.098-5.508c-1.434-1.434-4.214-3.165-8.34-5.193c-4.337-2.133-7.449-4.231-9.337-6.295
				c-1.889-2.028-2.833-4.528-2.833-7.501c0-2.833,1.014-5.534,3.042-8.104c2.027-2.571,4.878-3.856,8.55-3.856
				c3.742,0,6.836,1.521,9.285,4.564c0.524-0.524,1.207-1.801,2.046-3.83h1.941v13.271h-1.941c-0.7-3.182-2.055-5.918-4.065-8.209
				c-2.011-2.29-4.38-3.436-7.108-3.436c-2.098,0-3.795,0.647-5.088,1.94c-1.294,1.294-1.941,2.799-1.941,4.512
				c0,1.888,0.716,3.515,2.151,4.878c1.398,1.399,4.074,2.99,8.026,4.773c5.945,2.693,9.582,5.316,10.911,7.869
				c1.328,2.588,1.993,5.07,1.993,7.448c0,3.742-1.233,6.785-3.698,9.128c-2.465,2.342-5.569,3.515-9.311,3.515
				c-3.952,0-7.467-1.627-10.543-4.879c-0.944,1.049-1.714,2.554-2.308,4.512H79.274z"/>
			<path fill="none" stroke="#1E417D" stroke-width="2" stroke-miterlimit="10" d="M115.102,75.299V61.188h2.046
				c2.377,8.149,6.626,12.223,12.746,12.223c2.657,0,4.643-0.805,5.954-2.413s1.967-3.374,1.967-5.298
				c0-2.238-0.699-4.074-2.098-5.508c-1.435-1.434-4.215-3.165-8.341-5.193c-4.337-2.133-7.449-4.231-9.337-6.295
				c-1.889-2.028-2.833-4.528-2.833-7.501c0-2.833,1.014-5.534,3.043-8.104c2.027-2.571,4.878-3.856,8.55-3.856
				c3.742,0,6.837,1.521,9.285,4.564c0.524-0.524,1.206-1.801,2.046-3.83h1.94v13.271h-1.94c-0.7-3.182-2.055-5.918-4.065-8.209
				c-2.012-2.29-4.38-3.436-7.108-3.436c-2.098,0-3.795,0.647-5.088,1.94c-1.294,1.294-1.941,2.799-1.941,4.512
				c0,1.888,0.717,3.515,2.151,4.878c1.398,1.399,4.073,2.99,8.025,4.773c5.945,2.693,9.582,5.316,10.911,7.869
				c1.328,2.588,1.993,5.07,1.993,7.448c0,3.742-1.232,6.785-3.698,9.128c-2.465,2.342-5.569,3.515-9.311,3.515
				c-3.952,0-7.467-1.627-10.544-4.879c-0.944,1.049-1.714,2.554-2.308,4.512H115.102z"/>
			<path fill="none" stroke="#1E417D" stroke-width="2" stroke-miterlimit="10" d="M189.483,45.503h-29.952
				c-0.141,2.064-0.21,3.603-0.21,4.616c0,7.554,1.18,13.229,3.541,17.022c2.36,3.795,5.883,5.691,10.569,5.691
				c6.364,0,10.876-2.85,13.534-8.551h2.518c-1.119,3.567-3.34,6.356-6.662,8.367s-6.942,3.017-10.858,3.017
				c-3.638,0-7.073-0.918-10.308-2.754c-3.235-1.836-5.884-4.433-7.947-7.79s-3.095-7.431-3.095-12.223
				c0-6.784,1.993-12.423,5.98-16.917c3.986-4.493,8.97-6.741,14.95-6.741c5.63,0,9.983,1.714,13.062,5.142
				C187.682,37.811,189.309,41.517,189.483,45.503z M180.304,43.405c0.104-0.805,0.157-1.521,0.157-2.151
				c0-3.076-0.9-5.463-2.701-7.16c-1.802-1.695-4.013-2.544-6.636-2.544c-6.365,0-10.159,3.952-11.383,11.855H180.304z"/>
			<path fill="none" stroke="#1E417D" stroke-width="2" stroke-miterlimit="10" d="M230.399,34.75
				c2.973-3.357,5.98-5.036,9.022-5.036c1.679,0,2.981,0.455,3.908,1.364c0.926,0.909,1.391,1.906,1.391,2.989
				c0,2.309-1.05,3.463-3.147,3.463c-1.154,0-2.151-0.717-2.99-2.151c-0.77-1.328-1.574-1.993-2.413-1.993
				c-1.329,0-2.798,0.91-4.406,2.728c1.817,2.868,2.728,5.91,2.728,9.128c0,4.196-1.504,7.903-4.512,11.12
				c-3.008,3.253-8.078,5.002-15.212,5.246c-7.414,0.245-11.121,1.749-11.121,4.511c0,1.295,0.84,2.203,2.519,2.729
				c1.644,0.56,5.105,0.979,10.386,1.259c5.771,0.28,10.211,0.812,13.324,1.6c3.112,0.787,5.595,2.369,7.449,4.747
				c1.853,2.378,2.78,5.211,2.78,8.498c0,4.616-1.889,8.341-5.666,11.174c-3.776,2.832-9.215,4.249-16.313,4.249
				c-6.505,0-11.716-1.26-15.632-3.777c-3.917-2.518-5.876-5.7-5.876-9.547c0-2.134,0.56-3.882,1.679-5.246
				c1.119-1.363,2.71-2.046,4.773-2.046c0.56,0,1.066,0.087,1.521,0.263c-2.169,2.378-3.252,4.896-3.252,7.554
				c0,3.077,1.442,5.621,4.327,7.633c2.886,2.01,7.195,3.016,12.931,3.016c5.105,0,9.083-1.022,11.935-3.068
				c2.85-2.046,4.274-4.66,4.274-7.843c0-3.497-1.276-5.963-3.829-7.396c-2.553-1.399-7.1-2.239-13.639-2.519
				c-7.52-0.314-12.397-1.241-14.636-2.78c-2.238-1.503-3.356-3.443-3.356-5.822c0-4.581,3.199-7.466,9.6-8.655
				c-3.323-1.958-5.823-4.196-7.502-6.715c-1.679-2.518-2.518-5.332-2.518-8.445c0-4.371,1.722-8.086,5.167-11.146
				c3.444-3.061,7.527-4.591,12.248-4.591C222.182,29.241,226.867,31.078,230.399,34.75z M206.794,46.186
				c0,4.511,0.927,7.815,2.78,9.914c1.854,2.098,4.214,3.147,7.082,3.147c2.657,0,4.938-1.04,6.846-3.121
				c1.905-2.081,2.858-5.692,2.858-10.833c0-5.175-1.015-8.742-3.042-10.701c-2.029-1.958-4.319-2.938-6.872-2.938
				c-3.218,0-5.631,1.207-7.239,3.62S206.794,41.324,206.794,46.186z"/>
			<path fill="none" stroke="#1E417D" stroke-width="2" stroke-miterlimit="10" d="M292.299,66.066h1.941
				c-0.315,5.979-3.253,8.97-8.812,8.97c-2.379,0-4.259-0.63-5.64-1.889c-1.382-1.259-2.281-3.129-2.701-5.612
				c-3.497,2.483-6.688,4.354-9.573,5.612c-2.886,1.259-5.465,1.889-7.737,1.889c-2.903,0-5.403-0.839-7.502-2.518
				c-2.098-1.679-3.146-3.899-3.146-6.662c0-3.602,1.757-6.749,5.271-9.442c3.515-2.692,8.367-5.315,14.557-7.868l8.131-3.305
				v-2.099c0-2.972-0.192-5.123-0.577-6.452c-0.386-1.328-1.382-2.518-2.99-3.567c-1.608-1.049-3.725-1.573-6.347-1.573
				c-5.246,0-8.166,1.749-8.761,5.245c-0.56,3.567-2.028,5.351-4.406,5.351c-2.134,0-3.2-1.014-3.2-3.042
				c0-1.993,1.417-4.135,4.249-6.426c2.833-2.29,7.239-3.437,13.22-3.437c4.44,0,7.886,0.7,10.334,2.099
				c2.447,1.399,4.065,2.99,4.852,4.773c0.787,1.784,1.181,4.512,1.181,8.184V61.66c0,4.057,0.21,6.661,0.629,7.815
				c0.42,1.154,1.329,1.731,2.729,1.731C290.306,71.207,291.739,69.494,292.299,66.066z M277.087,47.706l-5.718,2.309
				c-9.022,3.672-13.534,8.288-13.534,13.849c0,2.203,0.577,3.979,1.731,5.324c1.154,1.347,2.657,2.02,4.511,2.02
				c1.644,0,3.55-0.542,5.718-1.626s4.599-2.71,7.292-4.879V47.706z"/>
			<path fill="none" stroke="#1E417D" stroke-width="2" stroke-miterlimit="10" d="M312.651,29.241v29.953
				c0,4.582,0.069,7.467,0.21,8.655c0.14,1.189,0.646,2.099,1.521,2.728c0.873,0.63,2.43,0.944,4.668,0.944h1.102v2.413H297.02
				v-2.413h1.783c2.482,0,4.1-0.358,4.853-1.075c0.752-0.717,1.188-1.574,1.312-2.57c0.122-0.997,0.184-3.89,0.184-8.682V46.186
				c0-5.036-0.236-8.113-0.708-9.232c-0.473-1.119-1.102-1.818-1.889-2.099c-0.787-0.279-2.16-0.42-4.118-0.42h-1.416v-2.413
				c6.225-0.629,11.05-1.556,14.478-2.78H312.651z M302.527,7.314c0-1.503,0.533-2.797,1.6-3.882
				c1.066-1.083,2.352-1.626,3.855-1.626s2.78,0.543,3.83,1.626c1.049,1.085,1.573,2.379,1.573,3.882
				c0,1.54-0.524,2.852-1.573,3.935c-1.05,1.084-2.326,1.626-3.83,1.626s-2.789-0.542-3.855-1.626
				C303.061,10.166,302.527,8.854,302.527,7.314z"/>
		</g>
	</g>
</g>
<g id="ASSEGAI_copy">
	<g>
		<g>
			<path fill="#1E417D" d="M4.192,131.466v-7.5h0.86c0.975,4.886,3.286,7.328,6.933,7.328c1.64,0,2.91-0.467,3.81-1.401
				s1.351-1.981,1.351-3.14c0-1.17-0.396-2.15-1.187-2.941c-0.792-0.78-2.236-1.617-4.335-2.512c-1.87-0.803-3.28-1.506-4.232-2.107
				c-0.952-0.603-1.694-1.385-2.228-2.349c-0.533-0.963-0.8-1.989-0.8-3.079c0-1.662,0.577-3.047,1.729-4.154
				c1.153-1.106,2.612-1.66,4.378-1.66c0.986,0,1.915,0.161,2.787,0.482c0.871,0.321,1.766,0.986,2.684,1.995
				c0.527-0.631,0.826-1.313,0.895-2.047h0.757v6.106h-0.757c-0.436-1.777-1.208-3.177-2.314-4.197
				c-1.107-1.021-2.388-1.531-3.845-1.531c-1.388,0-2.406,0.376-3.053,1.127c-0.648,0.751-0.972,1.574-0.972,2.469
				c0,1.078,0.407,1.989,1.221,2.735c0.803,0.757,2.254,1.605,4.353,2.546c2.007,0.895,3.466,1.614,4.378,2.158
				c0.912,0.545,1.643,1.299,2.193,2.263c0.55,0.963,0.826,2.076,0.826,3.337c0,1.996-0.666,3.618-1.996,4.868
				c-1.331,1.25-3.108,1.875-5.333,1.875c-2.558,0-4.691-0.98-6.399-2.941c-0.378,0.539-0.66,1.296-0.843,2.271H4.192z"/>
			<path fill="#1E417D" d="M38.834,122.384h-9.822c-0.046,0.677-0.069,1.181-0.069,1.514c0,2.477,0.387,4.338,1.161,5.582
				s1.929,1.866,3.466,1.866c2.087,0,3.566-0.935,4.438-2.804h0.826c-0.367,1.17-1.095,2.084-2.185,2.743
				c-1.089,0.66-2.276,0.989-3.561,0.989c-1.193,0-2.319-0.301-3.38-0.902c-1.061-0.603-1.93-1.454-2.606-2.555
				c-0.677-1.102-1.015-2.438-1.015-4.009c0-2.225,0.653-4.073,1.961-5.548c1.308-1.473,2.941-2.21,4.903-2.21
				c1.846,0,3.274,0.562,4.283,1.686C38.244,119.86,38.777,121.076,38.834,122.384z M35.824,121.695
				c0.035-0.264,0.052-0.499,0.052-0.705c0-1.009-0.295-1.792-0.886-2.349c-0.59-0.556-1.316-0.834-2.176-0.834
				c-2.087,0-3.332,1.296-3.733,3.888H35.824z"/>
			<path fill="#1E417D" d="M57.168,128.267h0.757c-0.78,2.672-2.73,4.008-5.849,4.008c-2.007,0-3.696-0.682-5.066-2.047
				c-1.371-1.364-2.056-3.171-2.056-5.419c0-2.305,0.74-4.174,2.219-5.607c1.479-1.434,3.228-2.15,5.247-2.15
				c1.215,0,2.333,0.267,3.354,0.8c1.021,0.533,1.531,1.185,1.531,1.952c0,0.287-0.095,0.557-0.284,0.809
				c-0.189,0.253-0.462,0.379-0.817,0.379c-0.757,0-1.221-0.441-1.393-1.325c-0.138-0.665-0.35-1.129-0.637-1.393
				c-0.298-0.264-0.877-0.396-1.737-0.396c-1.537,0-2.692,0.533-3.466,1.601c-0.774,1.066-1.161,2.672-1.161,4.816
				c0,2.213,0.416,3.945,1.247,5.195s2.09,1.875,3.776,1.875C55.104,131.363,56.549,130.331,57.168,128.267z"/>
			<path fill="#1E417D" d="M77.584,117.618v9.238c0,1.536,0.023,2.5,0.069,2.89s0.215,0.683,0.507,0.877
				c0.292,0.195,0.817,0.293,1.574,0.293v0.791c-1.744,0.022-3.017,0.206-3.819,0.551h-0.207c-0.367-0.631-0.562-1.721-0.585-3.269
				c-0.7,1.09-1.5,1.909-2.4,2.46c-0.9,0.55-1.895,0.825-2.984,0.825c-0.94,0-1.772-0.215-2.494-0.645
				c-0.723-0.431-1.219-0.955-1.488-1.574s-0.404-1.554-0.404-2.804v-4.8c0-1.628-0.029-2.623-0.086-2.984
				c-0.058-0.361-0.238-0.628-0.542-0.8s-0.863-0.259-1.677-0.259v-0.791h4.782v9.771c0,0.963,0.058,1.662,0.172,2.099
				c0.114,0.436,0.407,0.816,0.877,1.144s1.015,0.49,1.634,0.49c0.883,0,1.726-0.289,2.529-0.868s1.351-1.193,1.643-1.841
				c0.292-0.648,0.438-1.574,0.438-2.778v-3.183c0-1.536-0.017-2.471-0.052-2.804c-0.034-0.333-0.181-0.622-0.438-0.869
				c-0.258-0.246-0.794-0.37-1.608-0.37h-0.361v-0.791H77.584z"/>
			<path fill="#1E417D" d="M90.019,120.646c0.39-1.021,1.023-1.875,1.901-2.562c0.877-0.688,1.734-1.032,2.571-1.032
				c0.757,0,1.354,0.235,1.789,0.705c0.436,0.471,0.654,0.952,0.654,1.445c0,0.333-0.112,0.619-0.335,0.86
				c-0.224,0.24-0.496,0.36-0.817,0.36c-0.574,0-1.009-0.424-1.308-1.272c-0.207-0.573-0.516-0.86-0.929-0.86
				c-0.493,0-1.084,0.336-1.772,1.007s-1.13,1.367-1.325,2.09s-0.292,1.715-0.292,2.976v2.512c0,1.503,0.02,2.449,0.061,2.839
				c0.04,0.39,0.203,0.688,0.49,0.895c0.287,0.206,0.797,0.31,1.531,0.31h0.482v0.791h-7.483v-0.791h0.361
				c0.688,0,1.179-0.095,1.471-0.284c0.292-0.189,0.467-0.456,0.524-0.8c0.057-0.344,0.086-1.33,0.086-2.959v-3.974
				c0-1.514-0.02-2.463-0.06-2.847c-0.041-0.385-0.204-0.683-0.49-0.895c-0.287-0.212-0.797-0.318-1.531-0.318h-0.361v-0.774
				c1.078-0.126,2.488-0.464,4.231-1.015C89.8,117.957,89.984,119.155,90.019,120.646z"/>
			<path fill="#1E417D" d="M106.202,117.051v9.822c0,1.503,0.023,2.449,0.069,2.839s0.212,0.688,0.499,0.895
				c0.287,0.206,0.797,0.31,1.531,0.31h0.361v0.791h-7.586v-0.791h0.585c0.814,0,1.345-0.118,1.591-0.353
				c0.247-0.235,0.39-0.517,0.43-0.844c0.04-0.326,0.06-1.275,0.06-2.847v-4.266c0-1.651-0.077-2.661-0.232-3.028
				c-0.155-0.366-0.361-0.596-0.619-0.688c-0.258-0.092-0.708-0.138-1.35-0.138h-0.465v-0.792c2.042-0.206,3.624-0.51,4.748-0.911
				H106.202z M102.882,109.86c0-0.493,0.174-0.918,0.524-1.273c0.35-0.355,0.771-0.533,1.265-0.533c0.493,0,0.912,0.178,1.255,0.533
				c0.344,0.355,0.516,0.78,0.516,1.273c0,0.505-0.172,0.935-0.516,1.29c-0.344,0.355-0.763,0.533-1.255,0.533
				c-0.494,0-0.915-0.178-1.265-0.533C103.057,110.795,102.882,110.365,102.882,109.86z"/>
			<path fill="#1E417D" d="M122.524,118.409h-4.249v8.516c0,1.308,0.057,2.188,0.172,2.641c0.114,0.453,0.358,0.817,0.731,1.092
				c0.372,0.275,0.771,0.413,1.195,0.413c0.825,0,1.542-0.47,2.15-1.41l0.55,0.326c-0.355,0.758-0.88,1.328-1.573,1.712
				c-0.694,0.385-1.396,0.576-2.107,0.576c-0.826,0-1.552-0.243-2.177-0.73s-1.015-1.059-1.169-1.712
				c-0.155-0.653-0.232-1.801-0.232-3.44v-7.982h-2.047v-0.791c0.939-0.022,1.783-0.418,2.528-1.187s1.222-1.847,1.428-3.234h0.551
				v4.421h4.249V118.409z"/>
			<path fill="#1E417D" d="M135.783,129.041l3.269-7.827c0.47-1.146,0.705-1.783,0.705-1.91c0-0.573-0.637-0.871-1.91-0.895v-0.791
				h4.955v0.791c-0.769,0.035-1.331,0.238-1.687,0.611s-0.797,1.195-1.324,2.469l-6.279,15.155c-0.596,1.444-1.124,2.428-1.582,2.95
				c-0.459,0.521-0.964,0.782-1.514,0.782c-0.746,0-1.118-0.338-1.118-1.015c0-0.78,0.596-1.439,1.789-1.979
				c0.699-0.31,1.167-0.573,1.401-0.791c0.235-0.219,0.468-0.614,0.697-1.188l1.342-3.354l-5.299-11.354
				c-0.47-0.997-0.859-1.628-1.17-1.892c-0.31-0.264-0.837-0.396-1.582-0.396v-0.791h6.468v0.791
				c-1.135,0.035-1.703,0.271-1.703,0.706c0,0.172,0.224,0.733,0.671,1.686L135.783,129.041z"/>
			<path fill="#1E417D" d="M160.686,131.466v-7.5h0.859c0.975,4.886,3.286,7.328,6.933,7.328c1.64,0,2.91-0.467,3.811-1.401
				s1.351-1.981,1.351-3.14c0-1.17-0.396-2.15-1.188-2.941c-0.791-0.78-2.236-1.617-4.335-2.512
				c-1.869-0.803-3.279-1.506-4.231-2.107c-0.952-0.603-1.694-1.385-2.228-2.349c-0.533-0.963-0.8-1.989-0.8-3.079
				c0-1.662,0.576-3.047,1.729-4.154c1.152-1.106,2.612-1.66,4.378-1.66c0.986,0,1.915,0.161,2.787,0.482
				c0.871,0.321,1.766,0.986,2.684,1.995c0.527-0.631,0.825-1.313,0.895-2.047h0.757v6.106h-0.757
				c-0.437-1.777-1.207-3.177-2.313-4.197c-1.107-1.021-2.389-1.531-3.845-1.531c-1.389,0-2.406,0.376-3.054,1.127
				c-0.648,0.751-0.972,1.574-0.972,2.469c0,1.078,0.406,1.989,1.221,2.735c0.803,0.757,2.254,1.605,4.353,2.546
				c2.007,0.895,3.466,1.614,4.378,2.158c0.912,0.545,1.643,1.299,2.193,2.263c0.551,0.963,0.825,2.076,0.825,3.337
				c0,1.996-0.665,3.618-1.995,4.868s-3.108,1.875-5.333,1.875c-2.558,0-4.69-0.98-6.399-2.941
				c-0.378,0.539-0.659,1.296-0.843,2.271H160.686z"/>
			<path fill="#1E417D" d="M182.563,124.637c0-2.156,0.723-3.959,2.167-5.41c1.445-1.45,3.223-2.176,5.333-2.176
				c2.121,0,3.905,0.729,5.35,2.185c1.445,1.457,2.168,3.257,2.168,5.401c0,2.374-0.734,4.24-2.202,5.6s-3.24,2.038-5.315,2.038
				c-2.076,0-3.845-0.69-5.307-2.072C183.294,128.82,182.563,126.965,182.563,124.637z M185.419,124.723
				c0,2.5,0.407,4.252,1.222,5.256c0.813,1.003,1.955,1.505,3.423,1.505c1.502,0,2.651-0.502,3.449-1.505
				c0.797-1.004,1.195-2.756,1.195-5.256c0-2.477-0.396-4.243-1.187-5.298c-0.792-1.056-1.944-1.583-3.458-1.583
				c-1.503,0-2.652,0.524-3.449,1.574C185.817,120.465,185.419,122.234,185.419,124.723z"/>
			<path fill="#1E417D" d="M207.796,108.054v18.819c0,1.503,0.021,2.449,0.061,2.839s0.203,0.688,0.49,0.895
				c0.286,0.206,0.797,0.31,1.531,0.31h0.412v0.791h-7.534v-0.791h0.481c0.688,0,1.179-0.095,1.471-0.284
				c0.293-0.189,0.468-0.456,0.525-0.8c0.057-0.344,0.086-1.33,0.086-2.959v-13.934c0-1.479-0.133-2.411-0.396-2.796
				c-0.264-0.384-0.905-0.576-1.926-0.576v-0.791c0.699,0,1.521-0.08,2.468-0.241c0.946-0.16,1.597-0.32,1.953-0.481H207.796z"/>
			<path fill="#1E417D" d="M229.674,117.618v9.238c0,1.536,0.022,2.5,0.068,2.89s0.215,0.683,0.508,0.877
				c0.292,0.195,0.816,0.293,1.573,0.293v0.791c-1.743,0.022-3.016,0.206-3.818,0.551h-0.207c-0.367-0.631-0.562-1.721-0.584-3.269
				c-0.7,1.09-1.5,1.909-2.4,2.46c-0.9,0.55-1.895,0.825-2.984,0.825c-0.94,0-1.771-0.215-2.494-0.645
				c-0.723-0.431-1.219-0.955-1.488-1.574s-0.404-1.554-0.404-2.804v-4.8c0-1.628-0.028-2.623-0.086-2.984s-0.238-0.628-0.542-0.8
				s-0.863-0.259-1.677-0.259v-0.791h4.782v9.771c0,0.963,0.057,1.662,0.172,2.099c0.114,0.436,0.407,0.816,0.877,1.144
				c0.471,0.327,1.016,0.49,1.635,0.49c0.883,0,1.726-0.289,2.528-0.868s1.351-1.193,1.643-1.841
				c0.293-0.648,0.439-1.574,0.439-2.778v-3.183c0-1.536-0.018-2.471-0.052-2.804c-0.035-0.333-0.181-0.622-0.438-0.869
				c-0.259-0.246-0.795-0.37-1.609-0.37h-0.36v-0.791H229.674z"/>
			<path fill="#1E417D" d="M245.909,118.409h-4.249v8.516c0,1.308,0.057,2.188,0.172,2.641c0.114,0.453,0.358,0.817,0.731,1.092
				c0.372,0.275,0.771,0.413,1.195,0.413c0.825,0,1.542-0.47,2.15-1.41l0.55,0.326c-0.355,0.758-0.88,1.328-1.573,1.712
				c-0.694,0.385-1.396,0.576-2.107,0.576c-0.826,0-1.552-0.243-2.177-0.73s-1.015-1.059-1.169-1.712
				c-0.155-0.653-0.232-1.801-0.232-3.44v-7.982h-2.047v-0.791c0.939-0.022,1.783-0.418,2.528-1.187s1.222-1.847,1.428-3.234h0.551
				v4.421h4.249V118.409z"/>
			<path fill="#1E417D" d="M255.711,117.051v9.822c0,1.503,0.022,2.449,0.068,2.839s0.213,0.688,0.499,0.895
				c0.287,0.206,0.797,0.31,1.531,0.31h0.361v0.791h-7.586v-0.791h0.585c0.813,0,1.344-0.118,1.591-0.353
				c0.246-0.235,0.39-0.517,0.43-0.844c0.04-0.326,0.061-1.275,0.061-2.847v-4.266c0-1.651-0.077-2.661-0.232-3.028
				c-0.154-0.366-0.361-0.596-0.619-0.688s-0.708-0.138-1.351-0.138h-0.464v-0.792c2.041-0.206,3.623-0.51,4.747-0.911H255.711z
				 M252.391,109.86c0-0.493,0.175-0.918,0.525-1.273c0.35-0.355,0.771-0.533,1.264-0.533s0.912,0.178,1.256,0.533
				s0.517,0.78,0.517,1.273c0,0.505-0.173,0.935-0.517,1.29s-0.763,0.533-1.256,0.533s-0.914-0.178-1.264-0.533
				C252.565,110.795,252.391,110.365,252.391,109.86z"/>
			<path fill="#1E417D" d="M263.673,124.637c0-2.156,0.723-3.959,2.167-5.41c1.445-1.45,3.223-2.176,5.333-2.176
				c2.121,0,3.905,0.729,5.35,2.185c1.445,1.457,2.168,3.257,2.168,5.401c0,2.374-0.734,4.24-2.202,5.6s-3.24,2.038-5.315,2.038
				c-2.076,0-3.845-0.69-5.307-2.072C264.403,128.82,263.673,126.965,263.673,124.637z M266.528,124.723
				c0,2.5,0.407,4.252,1.222,5.256c0.813,1.003,1.955,1.505,3.423,1.505c1.502,0,2.651-0.502,3.449-1.505
				c0.797-1.004,1.195-2.756,1.195-5.256c0-2.477-0.396-4.243-1.187-5.298c-0.792-1.056-1.944-1.583-3.458-1.583
				c-1.503,0-2.652,0.524-3.449,1.574C266.927,120.465,266.528,122.234,266.528,124.723z"/>
			<path fill="#1E417D" d="M288.354,117.051h0.465c0.264,0.711,0.413,1.68,0.447,2.907c0.826-0.975,1.691-1.703,2.598-2.185
				c0.906-0.482,1.852-0.723,2.838-0.723c1.124,0,2.045,0.235,2.762,0.705c0.717,0.471,1.178,1.047,1.385,1.729
				c0.206,0.683,0.31,1.678,0.31,2.985v4.403c0,1.629,0.028,2.621,0.086,2.977s0.237,0.622,0.542,0.8
				c0.304,0.178,0.862,0.267,1.677,0.267v0.791h-7.208v-0.791h0.327c0.826,0,1.365-0.121,1.617-0.361
				c0.252-0.241,0.396-0.521,0.43-0.843c0.035-0.321,0.052-1.268,0.052-2.839v-4.541c0-1.112-0.055-1.907-0.163-2.383
				c-0.109-0.476-0.401-0.897-0.877-1.265c-0.477-0.366-1.081-0.55-1.815-0.55c-0.837,0-1.637,0.249-2.399,0.748
				s-1.482,1.247-2.159,2.245v5.745c0,1.629,0.031,2.621,0.095,2.977c0.062,0.355,0.246,0.622,0.551,0.8
				c0.304,0.178,0.868,0.267,1.694,0.267v0.791h-7.122v-0.791c0.791,0,1.342-0.08,1.651-0.241c0.31-0.16,0.502-0.404,0.576-0.731
				c0.074-0.326,0.112-1.35,0.112-3.07v-4.197c0-1.64-0.032-2.635-0.095-2.984c-0.063-0.35-0.247-0.613-0.551-0.792
				c-0.304-0.177-0.868-0.267-1.694-0.267v-0.791C285.745,117.704,287.035,117.44,288.354,117.051z"/>
			<path fill="#1E417D" d="M307.17,132.154v-4.627h0.671c0.78,2.672,2.173,4.008,4.181,4.008c0.871,0,1.521-0.264,1.952-0.791
				c0.43-0.527,0.645-1.107,0.645-1.738c0-0.733-0.229-1.336-0.688-1.806c-0.471-0.471-1.382-1.038-2.735-1.703
				c-1.422-0.699-2.442-1.388-3.062-2.064c-0.62-0.665-0.93-1.485-0.93-2.46c0-0.929,0.333-1.814,0.998-2.657
				c0.665-0.844,1.6-1.265,2.804-1.265c1.228,0,2.242,0.499,3.045,1.496c0.172-0.172,0.396-0.59,0.671-1.256h0.637v4.353h-0.637
				c-0.229-1.043-0.674-1.94-1.333-2.692c-0.659-0.751-1.437-1.126-2.331-1.126c-0.688,0-1.244,0.212-1.669,0.636
				c-0.424,0.425-0.636,0.918-0.636,1.479c0,0.619,0.234,1.152,0.705,1.6c0.458,0.459,1.336,0.98,2.632,1.565
				c1.949,0.884,3.143,1.744,3.578,2.581c0.436,0.849,0.653,1.663,0.653,2.442c0,1.228-0.404,2.225-1.213,2.993
				c-0.808,0.769-1.826,1.152-3.053,1.152c-1.296,0-2.449-0.533-3.458-1.6c-0.31,0.344-0.562,0.837-0.757,1.479H307.17z"/>
		</g>
		<g>
			<path fill="#1E417D" d="M4.192,131.466v-7.5h0.86c0.975,4.886,3.286,7.328,6.933,7.328c1.64,0,2.91-0.467,3.81-1.401
				s1.351-1.981,1.351-3.14c0-1.17-0.396-2.15-1.187-2.941c-0.792-0.78-2.236-1.617-4.335-2.512c-1.87-0.803-3.28-1.506-4.232-2.107
				c-0.952-0.603-1.694-1.385-2.228-2.349c-0.533-0.963-0.8-1.989-0.8-3.079c0-1.662,0.577-3.047,1.729-4.154
				c1.153-1.106,2.612-1.66,4.378-1.66c0.986,0,1.915,0.161,2.787,0.482c0.871,0.321,1.766,0.986,2.684,1.995
				c0.527-0.631,0.826-1.313,0.895-2.047h0.757v6.106h-0.757c-0.436-1.777-1.208-3.177-2.314-4.197
				c-1.107-1.021-2.388-1.531-3.845-1.531c-1.388,0-2.406,0.376-3.053,1.127c-0.648,0.751-0.972,1.574-0.972,2.469
				c0,1.078,0.407,1.989,1.221,2.735c0.803,0.757,2.254,1.605,4.353,2.546c2.007,0.895,3.466,1.614,4.378,2.158
				c0.912,0.545,1.643,1.299,2.193,2.263c0.55,0.963,0.826,2.076,0.826,3.337c0,1.996-0.666,3.618-1.996,4.868
				c-1.331,1.25-3.108,1.875-5.333,1.875c-2.558,0-4.691-0.98-6.399-2.941c-0.378,0.539-0.66,1.296-0.843,2.271H4.192z"/>
			<path fill="#1E417D" d="M38.834,122.384h-9.822c-0.046,0.677-0.069,1.181-0.069,1.514c0,2.477,0.387,4.338,1.161,5.582
				s1.929,1.866,3.466,1.866c2.087,0,3.566-0.935,4.438-2.804h0.826c-0.367,1.17-1.095,2.084-2.185,2.743
				c-1.089,0.66-2.276,0.989-3.561,0.989c-1.193,0-2.319-0.301-3.38-0.902c-1.061-0.603-1.93-1.454-2.606-2.555
				c-0.677-1.102-1.015-2.438-1.015-4.009c0-2.225,0.653-4.073,1.961-5.548c1.308-1.473,2.941-2.21,4.903-2.21
				c1.846,0,3.274,0.562,4.283,1.686C38.244,119.86,38.777,121.076,38.834,122.384z M35.824,121.695
				c0.035-0.264,0.052-0.499,0.052-0.705c0-1.009-0.295-1.792-0.886-2.349c-0.59-0.556-1.316-0.834-2.176-0.834
				c-2.087,0-3.332,1.296-3.733,3.888H35.824z"/>
			<path fill="#1E417D" d="M57.168,128.267h0.757c-0.78,2.672-2.73,4.008-5.849,4.008c-2.007,0-3.696-0.682-5.066-2.047
				c-1.371-1.364-2.056-3.171-2.056-5.419c0-2.305,0.74-4.174,2.219-5.607c1.479-1.434,3.228-2.15,5.247-2.15
				c1.215,0,2.333,0.267,3.354,0.8c1.021,0.533,1.531,1.185,1.531,1.952c0,0.287-0.095,0.557-0.284,0.809
				c-0.189,0.253-0.462,0.379-0.817,0.379c-0.757,0-1.221-0.441-1.393-1.325c-0.138-0.665-0.35-1.129-0.637-1.393
				c-0.298-0.264-0.877-0.396-1.737-0.396c-1.537,0-2.692,0.533-3.466,1.601c-0.774,1.066-1.161,2.672-1.161,4.816
				c0,2.213,0.416,3.945,1.247,5.195s2.09,1.875,3.776,1.875C55.104,131.363,56.549,130.331,57.168,128.267z"/>
			<path fill="#1E417D" d="M77.584,117.618v9.238c0,1.536,0.023,2.5,0.069,2.89s0.215,0.683,0.507,0.877
				c0.292,0.195,0.817,0.293,1.574,0.293v0.791c-1.744,0.022-3.017,0.206-3.819,0.551h-0.207c-0.367-0.631-0.562-1.721-0.585-3.269
				c-0.7,1.09-1.5,1.909-2.4,2.46c-0.9,0.55-1.895,0.825-2.984,0.825c-0.94,0-1.772-0.215-2.494-0.645
				c-0.723-0.431-1.219-0.955-1.488-1.574s-0.404-1.554-0.404-2.804v-4.8c0-1.628-0.029-2.623-0.086-2.984
				c-0.058-0.361-0.238-0.628-0.542-0.8s-0.863-0.259-1.677-0.259v-0.791h4.782v9.771c0,0.963,0.058,1.662,0.172,2.099
				c0.114,0.436,0.407,0.816,0.877,1.144s1.015,0.49,1.634,0.49c0.883,0,1.726-0.289,2.529-0.868s1.351-1.193,1.643-1.841
				c0.292-0.648,0.438-1.574,0.438-2.778v-3.183c0-1.536-0.017-2.471-0.052-2.804c-0.034-0.333-0.181-0.622-0.438-0.869
				c-0.258-0.246-0.794-0.37-1.608-0.37h-0.361v-0.791H77.584z"/>
			<path fill="#1E417D" d="M90.019,120.646c0.39-1.021,1.023-1.875,1.901-2.562c0.877-0.688,1.734-1.032,2.571-1.032
				c0.757,0,1.354,0.235,1.789,0.705c0.436,0.471,0.654,0.952,0.654,1.445c0,0.333-0.112,0.619-0.335,0.86
				c-0.224,0.24-0.496,0.36-0.817,0.36c-0.574,0-1.009-0.424-1.308-1.272c-0.207-0.573-0.516-0.86-0.929-0.86
				c-0.493,0-1.084,0.336-1.772,1.007s-1.13,1.367-1.325,2.09s-0.292,1.715-0.292,2.976v2.512c0,1.503,0.02,2.449,0.061,2.839
				c0.04,0.39,0.203,0.688,0.49,0.895c0.287,0.206,0.797,0.31,1.531,0.31h0.482v0.791h-7.483v-0.791h0.361
				c0.688,0,1.179-0.095,1.471-0.284c0.292-0.189,0.467-0.456,0.524-0.8c0.057-0.344,0.086-1.33,0.086-2.959v-3.974
				c0-1.514-0.02-2.463-0.06-2.847c-0.041-0.385-0.204-0.683-0.49-0.895c-0.287-0.212-0.797-0.318-1.531-0.318h-0.361v-0.774
				c1.078-0.126,2.488-0.464,4.231-1.015C89.8,117.957,89.984,119.155,90.019,120.646z"/>
			<path fill="#1E417D" d="M106.202,117.051v9.822c0,1.503,0.023,2.449,0.069,2.839s0.212,0.688,0.499,0.895
				c0.287,0.206,0.797,0.31,1.531,0.31h0.361v0.791h-7.586v-0.791h0.585c0.814,0,1.345-0.118,1.591-0.353
				c0.247-0.235,0.39-0.517,0.43-0.844c0.04-0.326,0.06-1.275,0.06-2.847v-4.266c0-1.651-0.077-2.661-0.232-3.028
				c-0.155-0.366-0.361-0.596-0.619-0.688c-0.258-0.092-0.708-0.138-1.35-0.138h-0.465v-0.792c2.042-0.206,3.624-0.51,4.748-0.911
				H106.202z M102.882,109.86c0-0.493,0.174-0.918,0.524-1.273c0.35-0.355,0.771-0.533,1.265-0.533c0.493,0,0.912,0.178,1.255,0.533
				c0.344,0.355,0.516,0.78,0.516,1.273c0,0.505-0.172,0.935-0.516,1.29c-0.344,0.355-0.763,0.533-1.255,0.533
				c-0.494,0-0.915-0.178-1.265-0.533C103.057,110.795,102.882,110.365,102.882,109.86z"/>
			<path fill="#1E417D" d="M122.524,118.409h-4.249v8.516c0,1.308,0.057,2.188,0.172,2.641c0.114,0.453,0.358,0.817,0.731,1.092
				c0.372,0.275,0.771,0.413,1.195,0.413c0.825,0,1.542-0.47,2.15-1.41l0.55,0.326c-0.355,0.758-0.88,1.328-1.573,1.712
				c-0.694,0.385-1.396,0.576-2.107,0.576c-0.826,0-1.552-0.243-2.177-0.73s-1.015-1.059-1.169-1.712
				c-0.155-0.653-0.232-1.801-0.232-3.44v-7.982h-2.047v-0.791c0.939-0.022,1.783-0.418,2.528-1.187s1.222-1.847,1.428-3.234h0.551
				v4.421h4.249V118.409z"/>
			<path fill="#1E417D" d="M135.783,129.041l3.269-7.827c0.47-1.146,0.705-1.783,0.705-1.91c0-0.573-0.637-0.871-1.91-0.895v-0.791
				h4.955v0.791c-0.769,0.035-1.331,0.238-1.687,0.611s-0.797,1.195-1.324,2.469l-6.279,15.155c-0.596,1.444-1.124,2.428-1.582,2.95
				c-0.459,0.521-0.964,0.782-1.514,0.782c-0.746,0-1.118-0.338-1.118-1.015c0-0.78,0.596-1.439,1.789-1.979
				c0.699-0.31,1.167-0.573,1.401-0.791c0.235-0.219,0.468-0.614,0.697-1.188l1.342-3.354l-5.299-11.354
				c-0.47-0.997-0.859-1.628-1.17-1.892c-0.31-0.264-0.837-0.396-1.582-0.396v-0.791h6.468v0.791
				c-1.135,0.035-1.703,0.271-1.703,0.706c0,0.172,0.224,0.733,0.671,1.686L135.783,129.041z"/>
			<path fill="#1E417D" d="M160.686,131.466v-7.5h0.859c0.975,4.886,3.286,7.328,6.933,7.328c1.64,0,2.91-0.467,3.811-1.401
				s1.351-1.981,1.351-3.14c0-1.17-0.396-2.15-1.188-2.941c-0.791-0.78-2.236-1.617-4.335-2.512
				c-1.869-0.803-3.279-1.506-4.231-2.107c-0.952-0.603-1.694-1.385-2.228-2.349c-0.533-0.963-0.8-1.989-0.8-3.079
				c0-1.662,0.576-3.047,1.729-4.154c1.152-1.106,2.612-1.66,4.378-1.66c0.986,0,1.915,0.161,2.787,0.482
				c0.871,0.321,1.766,0.986,2.684,1.995c0.527-0.631,0.825-1.313,0.895-2.047h0.757v6.106h-0.757
				c-0.437-1.777-1.207-3.177-2.313-4.197c-1.107-1.021-2.389-1.531-3.845-1.531c-1.389,0-2.406,0.376-3.054,1.127
				c-0.648,0.751-0.972,1.574-0.972,2.469c0,1.078,0.406,1.989,1.221,2.735c0.803,0.757,2.254,1.605,4.353,2.546
				c2.007,0.895,3.466,1.614,4.378,2.158c0.912,0.545,1.643,1.299,2.193,2.263c0.551,0.963,0.825,2.076,0.825,3.337
				c0,1.996-0.665,3.618-1.995,4.868s-3.108,1.875-5.333,1.875c-2.558,0-4.69-0.98-6.399-2.941
				c-0.378,0.539-0.659,1.296-0.843,2.271H160.686z"/>
			<path fill="#1E417D" d="M182.563,124.637c0-2.156,0.723-3.959,2.167-5.41c1.445-1.45,3.223-2.176,5.333-2.176
				c2.121,0,3.905,0.729,5.35,2.185c1.445,1.457,2.168,3.257,2.168,5.401c0,2.374-0.734,4.24-2.202,5.6s-3.24,2.038-5.315,2.038
				c-2.076,0-3.845-0.69-5.307-2.072C183.294,128.82,182.563,126.965,182.563,124.637z M185.419,124.723
				c0,2.5,0.407,4.252,1.222,5.256c0.813,1.003,1.955,1.505,3.423,1.505c1.502,0,2.651-0.502,3.449-1.505
				c0.797-1.004,1.195-2.756,1.195-5.256c0-2.477-0.396-4.243-1.187-5.298c-0.792-1.056-1.944-1.583-3.458-1.583
				c-1.503,0-2.652,0.524-3.449,1.574C185.817,120.465,185.419,122.234,185.419,124.723z"/>
			<path fill="#1E417D" d="M207.796,108.054v18.819c0,1.503,0.021,2.449,0.061,2.839s0.203,0.688,0.49,0.895
				c0.286,0.206,0.797,0.31,1.531,0.31h0.412v0.791h-7.534v-0.791h0.481c0.688,0,1.179-0.095,1.471-0.284
				c0.293-0.189,0.468-0.456,0.525-0.8c0.057-0.344,0.086-1.33,0.086-2.959v-13.934c0-1.479-0.133-2.411-0.396-2.796
				c-0.264-0.384-0.905-0.576-1.926-0.576v-0.791c0.699,0,1.521-0.08,2.468-0.241c0.946-0.16,1.597-0.32,1.953-0.481H207.796z"/>
			<path fill="#1E417D" d="M229.674,117.618v9.238c0,1.536,0.022,2.5,0.068,2.89s0.215,0.683,0.508,0.877
				c0.292,0.195,0.816,0.293,1.573,0.293v0.791c-1.743,0.022-3.016,0.206-3.818,0.551h-0.207c-0.367-0.631-0.562-1.721-0.584-3.269
				c-0.7,1.09-1.5,1.909-2.4,2.46c-0.9,0.55-1.895,0.825-2.984,0.825c-0.94,0-1.771-0.215-2.494-0.645
				c-0.723-0.431-1.219-0.955-1.488-1.574s-0.404-1.554-0.404-2.804v-4.8c0-1.628-0.028-2.623-0.086-2.984s-0.238-0.628-0.542-0.8
				s-0.863-0.259-1.677-0.259v-0.791h4.782v9.771c0,0.963,0.057,1.662,0.172,2.099c0.114,0.436,0.407,0.816,0.877,1.144
				c0.471,0.327,1.016,0.49,1.635,0.49c0.883,0,1.726-0.289,2.528-0.868s1.351-1.193,1.643-1.841
				c0.293-0.648,0.439-1.574,0.439-2.778v-3.183c0-1.536-0.018-2.471-0.052-2.804c-0.035-0.333-0.181-0.622-0.438-0.869
				c-0.259-0.246-0.795-0.37-1.609-0.37h-0.36v-0.791H229.674z"/>
			<path fill="#1E417D" d="M245.909,118.409h-4.249v8.516c0,1.308,0.057,2.188,0.172,2.641c0.114,0.453,0.358,0.817,0.731,1.092
				c0.372,0.275,0.771,0.413,1.195,0.413c0.825,0,1.542-0.47,2.15-1.41l0.55,0.326c-0.355,0.758-0.88,1.328-1.573,1.712
				c-0.694,0.385-1.396,0.576-2.107,0.576c-0.826,0-1.552-0.243-2.177-0.73s-1.015-1.059-1.169-1.712
				c-0.155-0.653-0.232-1.801-0.232-3.44v-7.982h-2.047v-0.791c0.939-0.022,1.783-0.418,2.528-1.187s1.222-1.847,1.428-3.234h0.551
				v4.421h4.249V118.409z"/>
			<path fill="#1E417D" d="M255.711,117.051v9.822c0,1.503,0.022,2.449,0.068,2.839s0.213,0.688,0.499,0.895
				c0.287,0.206,0.797,0.31,1.531,0.31h0.361v0.791h-7.586v-0.791h0.585c0.813,0,1.344-0.118,1.591-0.353
				c0.246-0.235,0.39-0.517,0.43-0.844c0.04-0.326,0.061-1.275,0.061-2.847v-4.266c0-1.651-0.077-2.661-0.232-3.028
				c-0.154-0.366-0.361-0.596-0.619-0.688s-0.708-0.138-1.351-0.138h-0.464v-0.792c2.041-0.206,3.623-0.51,4.747-0.911H255.711z
				 M252.391,109.86c0-0.493,0.175-0.918,0.525-1.273c0.35-0.355,0.771-0.533,1.264-0.533s0.912,0.178,1.256,0.533
				s0.517,0.78,0.517,1.273c0,0.505-0.173,0.935-0.517,1.29s-0.763,0.533-1.256,0.533s-0.914-0.178-1.264-0.533
				C252.565,110.795,252.391,110.365,252.391,109.86z"/>
			<path fill="#1E417D" d="M263.673,124.637c0-2.156,0.723-3.959,2.167-5.41c1.445-1.45,3.223-2.176,5.333-2.176
				c2.121,0,3.905,0.729,5.35,2.185c1.445,1.457,2.168,3.257,2.168,5.401c0,2.374-0.734,4.24-2.202,5.6s-3.24,2.038-5.315,2.038
				c-2.076,0-3.845-0.69-5.307-2.072C264.403,128.82,263.673,126.965,263.673,124.637z M266.528,124.723
				c0,2.5,0.407,4.252,1.222,5.256c0.813,1.003,1.955,1.505,3.423,1.505c1.502,0,2.651-0.502,3.449-1.505
				c0.797-1.004,1.195-2.756,1.195-5.256c0-2.477-0.396-4.243-1.187-5.298c-0.792-1.056-1.944-1.583-3.458-1.583
				c-1.503,0-2.652,0.524-3.449,1.574C266.927,120.465,266.528,122.234,266.528,124.723z"/>
			<path fill="#1E417D" d="M288.354,117.051h0.465c0.264,0.711,0.413,1.68,0.447,2.907c0.826-0.975,1.691-1.703,2.598-2.185
				c0.906-0.482,1.852-0.723,2.838-0.723c1.124,0,2.045,0.235,2.762,0.705c0.717,0.471,1.178,1.047,1.385,1.729
				c0.206,0.683,0.31,1.678,0.31,2.985v4.403c0,1.629,0.028,2.621,0.086,2.977s0.237,0.622,0.542,0.8
				c0.304,0.178,0.862,0.267,1.677,0.267v0.791h-7.208v-0.791h0.327c0.826,0,1.365-0.121,1.617-0.361
				c0.252-0.241,0.396-0.521,0.43-0.843c0.035-0.321,0.052-1.268,0.052-2.839v-4.541c0-1.112-0.055-1.907-0.163-2.383
				c-0.109-0.476-0.401-0.897-0.877-1.265c-0.477-0.366-1.081-0.55-1.815-0.55c-0.837,0-1.637,0.249-2.399,0.748
				s-1.482,1.247-2.159,2.245v5.745c0,1.629,0.031,2.621,0.095,2.977c0.062,0.355,0.246,0.622,0.551,0.8
				c0.304,0.178,0.868,0.267,1.694,0.267v0.791h-7.122v-0.791c0.791,0,1.342-0.08,1.651-0.241c0.31-0.16,0.502-0.404,0.576-0.731
				c0.074-0.326,0.112-1.35,0.112-3.07v-4.197c0-1.64-0.032-2.635-0.095-2.984c-0.063-0.35-0.247-0.613-0.551-0.792
				c-0.304-0.177-0.868-0.267-1.694-0.267v-0.791C285.745,117.704,287.035,117.44,288.354,117.051z"/>
			<path fill="#1E417D" d="M307.17,132.154v-4.627h0.671c0.78,2.672,2.173,4.008,4.181,4.008c0.871,0,1.521-0.264,1.952-0.791
				c0.43-0.527,0.645-1.107,0.645-1.738c0-0.733-0.229-1.336-0.688-1.806c-0.471-0.471-1.382-1.038-2.735-1.703
				c-1.422-0.699-2.442-1.388-3.062-2.064c-0.62-0.665-0.93-1.485-0.93-2.46c0-0.929,0.333-1.814,0.998-2.657
				c0.665-0.844,1.6-1.265,2.804-1.265c1.228,0,2.242,0.499,3.045,1.496c0.172-0.172,0.396-0.59,0.671-1.256h0.637v4.353h-0.637
				c-0.229-1.043-0.674-1.94-1.333-2.692c-0.659-0.751-1.437-1.126-2.331-1.126c-0.688,0-1.244,0.212-1.669,0.636
				c-0.424,0.425-0.636,0.918-0.636,1.479c0,0.619,0.234,1.152,0.705,1.6c0.458,0.459,1.336,0.98,2.632,1.565
				c1.949,0.884,3.143,1.744,3.578,2.581c0.436,0.849,0.653,1.663,0.653,2.442c0,1.228-0.404,2.225-1.213,2.993
				c-0.808,0.769-1.826,1.152-3.053,1.152c-1.296,0-2.449-0.533-3.458-1.6c-0.31,0.344-0.562,0.837-0.757,1.479H307.17z"/>
		</g>
		<g>
			<path fill="none" stroke="#1E417D" stroke-width="2" stroke-miterlimit="10" d="M4.192,131.466v-7.5h0.86
				c0.975,4.886,3.286,7.328,6.933,7.328c1.64,0,2.91-0.467,3.81-1.401s1.351-1.981,1.351-3.14c0-1.17-0.396-2.15-1.187-2.941
				c-0.792-0.78-2.236-1.617-4.335-2.512c-1.87-0.803-3.28-1.506-4.232-2.107c-0.952-0.603-1.694-1.385-2.228-2.349
				c-0.533-0.963-0.8-1.989-0.8-3.079c0-1.662,0.577-3.047,1.729-4.154c1.153-1.106,2.612-1.66,4.378-1.66
				c0.986,0,1.915,0.161,2.787,0.482c0.871,0.321,1.766,0.986,2.684,1.995c0.527-0.631,0.826-1.313,0.895-2.047h0.757v6.106h-0.757
				c-0.436-1.777-1.208-3.177-2.314-4.197c-1.107-1.021-2.388-1.531-3.845-1.531c-1.388,0-2.406,0.376-3.053,1.127
				c-0.648,0.751-0.972,1.574-0.972,2.469c0,1.078,0.407,1.989,1.221,2.735c0.803,0.757,2.254,1.605,4.353,2.546
				c2.007,0.895,3.466,1.614,4.378,2.158c0.912,0.545,1.643,1.299,2.193,2.263c0.55,0.963,0.826,2.076,0.826,3.337
				c0,1.996-0.666,3.618-1.996,4.868c-1.331,1.25-3.108,1.875-5.333,1.875c-2.558,0-4.691-0.98-6.399-2.941
				c-0.378,0.539-0.66,1.296-0.843,2.271H4.192z"/>
			<path fill="none" stroke="#1E417D" stroke-width="2" stroke-miterlimit="10" d="M38.834,122.384h-9.822
				c-0.046,0.677-0.069,1.181-0.069,1.514c0,2.477,0.387,4.338,1.161,5.582s1.929,1.866,3.466,1.866
				c2.087,0,3.566-0.935,4.438-2.804h0.826c-0.367,1.17-1.095,2.084-2.185,2.743c-1.089,0.66-2.276,0.989-3.561,0.989
				c-1.193,0-2.319-0.301-3.38-0.902c-1.061-0.603-1.93-1.454-2.606-2.555c-0.677-1.102-1.015-2.438-1.015-4.009
				c0-2.225,0.653-4.073,1.961-5.548c1.308-1.473,2.941-2.21,4.903-2.21c1.846,0,3.274,0.562,4.283,1.686
				C38.244,119.86,38.777,121.076,38.834,122.384z M35.824,121.695c0.035-0.264,0.052-0.499,0.052-0.705
				c0-1.009-0.295-1.792-0.886-2.349c-0.59-0.556-1.316-0.834-2.176-0.834c-2.087,0-3.332,1.296-3.733,3.888H35.824z"/>
			<path fill="none" stroke="#1E417D" stroke-width="2" stroke-miterlimit="10" d="M57.168,128.267h0.757
				c-0.78,2.672-2.73,4.008-5.849,4.008c-2.007,0-3.696-0.682-5.066-2.047c-1.371-1.364-2.056-3.171-2.056-5.419
				c0-2.305,0.74-4.174,2.219-5.607c1.479-1.434,3.228-2.15,5.247-2.15c1.215,0,2.333,0.267,3.354,0.8
				c1.021,0.533,1.531,1.185,1.531,1.952c0,0.287-0.095,0.557-0.284,0.809c-0.189,0.253-0.462,0.379-0.817,0.379
				c-0.757,0-1.221-0.441-1.393-1.325c-0.138-0.665-0.35-1.129-0.637-1.393c-0.298-0.264-0.877-0.396-1.737-0.396
				c-1.537,0-2.692,0.533-3.466,1.601c-0.774,1.066-1.161,2.672-1.161,4.816c0,2.213,0.416,3.945,1.247,5.195
				s2.09,1.875,3.776,1.875C55.104,131.363,56.549,130.331,57.168,128.267z"/>
			<path fill="none" stroke="#1E417D" stroke-width="2" stroke-miterlimit="10" d="M77.584,117.618v9.238
				c0,1.536,0.023,2.5,0.069,2.89s0.215,0.683,0.507,0.877c0.292,0.195,0.817,0.293,1.574,0.293v0.791
				c-1.744,0.022-3.017,0.206-3.819,0.551h-0.207c-0.367-0.631-0.562-1.721-0.585-3.269c-0.7,1.09-1.5,1.909-2.4,2.46
				c-0.9,0.55-1.895,0.825-2.984,0.825c-0.94,0-1.772-0.215-2.494-0.645c-0.723-0.431-1.219-0.955-1.488-1.574
				s-0.404-1.554-0.404-2.804v-4.8c0-1.628-0.029-2.623-0.086-2.984c-0.058-0.361-0.238-0.628-0.542-0.8s-0.863-0.259-1.677-0.259
				v-0.791h4.782v9.771c0,0.963,0.058,1.662,0.172,2.099c0.114,0.436,0.407,0.816,0.877,1.144s1.015,0.49,1.634,0.49
				c0.883,0,1.726-0.289,2.529-0.868s1.351-1.193,1.643-1.841c0.292-0.648,0.438-1.574,0.438-2.778v-3.183
				c0-1.536-0.017-2.471-0.052-2.804c-0.034-0.333-0.181-0.622-0.438-0.869c-0.258-0.246-0.794-0.37-1.608-0.37h-0.361v-0.791
				H77.584z"/>
			<path fill="none" stroke="#1E417D" stroke-width="2" stroke-miterlimit="10" d="M90.019,120.646
				c0.39-1.021,1.023-1.875,1.901-2.562c0.877-0.688,1.734-1.032,2.571-1.032c0.757,0,1.354,0.235,1.789,0.705
				c0.436,0.471,0.654,0.952,0.654,1.445c0,0.333-0.112,0.619-0.335,0.86c-0.224,0.24-0.496,0.36-0.817,0.36
				c-0.574,0-1.009-0.424-1.308-1.272c-0.207-0.573-0.516-0.86-0.929-0.86c-0.493,0-1.084,0.336-1.772,1.007s-1.13,1.367-1.325,2.09
				s-0.292,1.715-0.292,2.976v2.512c0,1.503,0.02,2.449,0.061,2.839c0.04,0.39,0.203,0.688,0.49,0.895
				c0.287,0.206,0.797,0.31,1.531,0.31h0.482v0.791h-7.483v-0.791h0.361c0.688,0,1.179-0.095,1.471-0.284
				c0.292-0.189,0.467-0.456,0.524-0.8c0.057-0.344,0.086-1.33,0.086-2.959v-3.974c0-1.514-0.02-2.463-0.06-2.847
				c-0.041-0.385-0.204-0.683-0.49-0.895c-0.287-0.212-0.797-0.318-1.531-0.318h-0.361v-0.774c1.078-0.126,2.488-0.464,4.231-1.015
				C89.8,117.957,89.984,119.155,90.019,120.646z"/>
			<path fill="none" stroke="#1E417D" stroke-width="2" stroke-miterlimit="10" d="M106.202,117.051v9.822
				c0,1.503,0.023,2.449,0.069,2.839s0.212,0.688,0.499,0.895c0.287,0.206,0.797,0.31,1.531,0.31h0.361v0.791h-7.586v-0.791h0.585
				c0.814,0,1.345-0.118,1.591-0.353c0.247-0.235,0.39-0.517,0.43-0.844c0.04-0.326,0.06-1.275,0.06-2.847v-4.266
				c0-1.651-0.077-2.661-0.232-3.028c-0.155-0.366-0.361-0.596-0.619-0.688c-0.258-0.092-0.708-0.138-1.35-0.138h-0.465v-0.792
				c2.042-0.206,3.624-0.51,4.748-0.911H106.202z M102.882,109.86c0-0.493,0.174-0.918,0.524-1.273
				c0.35-0.355,0.771-0.533,1.265-0.533c0.493,0,0.912,0.178,1.255,0.533c0.344,0.355,0.516,0.78,0.516,1.273
				c0,0.505-0.172,0.935-0.516,1.29c-0.344,0.355-0.763,0.533-1.255,0.533c-0.494,0-0.915-0.178-1.265-0.533
				C103.057,110.795,102.882,110.365,102.882,109.86z"/>
			<path fill="none" stroke="#1E417D" stroke-width="2" stroke-miterlimit="10" d="M122.524,118.409h-4.249v8.516
				c0,1.308,0.057,2.188,0.172,2.641c0.114,0.453,0.358,0.817,0.731,1.092c0.372,0.275,0.771,0.413,1.195,0.413
				c0.825,0,1.542-0.47,2.15-1.41l0.55,0.326c-0.355,0.758-0.88,1.328-1.573,1.712c-0.694,0.385-1.396,0.576-2.107,0.576
				c-0.826,0-1.552-0.243-2.177-0.73s-1.015-1.059-1.169-1.712c-0.155-0.653-0.232-1.801-0.232-3.44v-7.982h-2.047v-0.791
				c0.939-0.022,1.783-0.418,2.528-1.187s1.222-1.847,1.428-3.234h0.551v4.421h4.249V118.409z"/>
			<path fill="none" stroke="#1E417D" stroke-width="2" stroke-miterlimit="10" d="M135.783,129.041l3.269-7.827
				c0.47-1.146,0.705-1.783,0.705-1.91c0-0.573-0.637-0.871-1.91-0.895v-0.791h4.955v0.791c-0.769,0.035-1.331,0.238-1.687,0.611
				s-0.797,1.195-1.324,2.469l-6.279,15.155c-0.596,1.444-1.124,2.428-1.582,2.95c-0.459,0.521-0.964,0.782-1.514,0.782
				c-0.746,0-1.118-0.338-1.118-1.015c0-0.78,0.596-1.439,1.789-1.979c0.699-0.31,1.167-0.573,1.401-0.791
				c0.235-0.219,0.468-0.614,0.697-1.188l1.342-3.354l-5.299-11.354c-0.47-0.997-0.859-1.628-1.17-1.892
				c-0.31-0.264-0.837-0.396-1.582-0.396v-0.791h6.468v0.791c-1.135,0.035-1.703,0.271-1.703,0.706c0,0.172,0.224,0.733,0.671,1.686
				L135.783,129.041z"/>
			<path fill="none" stroke="#1E417D" stroke-width="2" stroke-miterlimit="10" d="M160.686,131.466v-7.5h0.859
				c0.975,4.886,3.286,7.328,6.933,7.328c1.64,0,2.91-0.467,3.811-1.401s1.351-1.981,1.351-3.14c0-1.17-0.396-2.15-1.188-2.941
				c-0.791-0.78-2.236-1.617-4.335-2.512c-1.869-0.803-3.279-1.506-4.231-2.107c-0.952-0.603-1.694-1.385-2.228-2.349
				c-0.533-0.963-0.8-1.989-0.8-3.079c0-1.662,0.576-3.047,1.729-4.154c1.152-1.106,2.612-1.66,4.378-1.66
				c0.986,0,1.915,0.161,2.787,0.482c0.871,0.321,1.766,0.986,2.684,1.995c0.527-0.631,0.825-1.313,0.895-2.047h0.757v6.106h-0.757
				c-0.437-1.777-1.207-3.177-2.313-4.197c-1.107-1.021-2.389-1.531-3.845-1.531c-1.389,0-2.406,0.376-3.054,1.127
				c-0.648,0.751-0.972,1.574-0.972,2.469c0,1.078,0.406,1.989,1.221,2.735c0.803,0.757,2.254,1.605,4.353,2.546
				c2.007,0.895,3.466,1.614,4.378,2.158c0.912,0.545,1.643,1.299,2.193,2.263c0.551,0.963,0.825,2.076,0.825,3.337
				c0,1.996-0.665,3.618-1.995,4.868s-3.108,1.875-5.333,1.875c-2.558,0-4.69-0.98-6.399-2.941
				c-0.378,0.539-0.659,1.296-0.843,2.271H160.686z"/>
			<path fill="none" stroke="#1E417D" stroke-width="2" stroke-miterlimit="10" d="M182.563,124.637c0-2.156,0.723-3.959,2.167-5.41
				c1.445-1.45,3.223-2.176,5.333-2.176c2.121,0,3.905,0.729,5.35,2.185c1.445,1.457,2.168,3.257,2.168,5.401
				c0,2.374-0.734,4.24-2.202,5.6s-3.24,2.038-5.315,2.038c-2.076,0-3.845-0.69-5.307-2.072
				C183.294,128.82,182.563,126.965,182.563,124.637z M185.419,124.723c0,2.5,0.407,4.252,1.222,5.256
				c0.813,1.003,1.955,1.505,3.423,1.505c1.502,0,2.651-0.502,3.449-1.505c0.797-1.004,1.195-2.756,1.195-5.256
				c0-2.477-0.396-4.243-1.187-5.298c-0.792-1.056-1.944-1.583-3.458-1.583c-1.503,0-2.652,0.524-3.449,1.574
				C185.817,120.465,185.419,122.234,185.419,124.723z"/>
			<path fill="none" stroke="#1E417D" stroke-width="2" stroke-miterlimit="10" d="M207.796,108.054v18.819
				c0,1.503,0.021,2.449,0.061,2.839s0.203,0.688,0.49,0.895c0.286,0.206,0.797,0.31,1.531,0.31h0.412v0.791h-7.534v-0.791h0.481
				c0.688,0,1.179-0.095,1.471-0.284c0.293-0.189,0.468-0.456,0.525-0.8c0.057-0.344,0.086-1.33,0.086-2.959v-13.934
				c0-1.479-0.133-2.411-0.396-2.796c-0.264-0.384-0.905-0.576-1.926-0.576v-0.791c0.699,0,1.521-0.08,2.468-0.241
				c0.946-0.16,1.597-0.32,1.953-0.481H207.796z"/>
			<path fill="none" stroke="#1E417D" stroke-width="2" stroke-miterlimit="10" d="M229.674,117.618v9.238
				c0,1.536,0.022,2.5,0.068,2.89s0.215,0.683,0.508,0.877c0.292,0.195,0.816,0.293,1.573,0.293v0.791
				c-1.743,0.022-3.016,0.206-3.818,0.551h-0.207c-0.367-0.631-0.562-1.721-0.584-3.269c-0.7,1.09-1.5,1.909-2.4,2.46
				c-0.9,0.55-1.895,0.825-2.984,0.825c-0.94,0-1.771-0.215-2.494-0.645c-0.723-0.431-1.219-0.955-1.488-1.574
				s-0.404-1.554-0.404-2.804v-4.8c0-1.628-0.028-2.623-0.086-2.984s-0.238-0.628-0.542-0.8s-0.863-0.259-1.677-0.259v-0.791h4.782
				v9.771c0,0.963,0.057,1.662,0.172,2.099c0.114,0.436,0.407,0.816,0.877,1.144c0.471,0.327,1.016,0.49,1.635,0.49
				c0.883,0,1.726-0.289,2.528-0.868s1.351-1.193,1.643-1.841c0.293-0.648,0.439-1.574,0.439-2.778v-3.183
				c0-1.536-0.018-2.471-0.052-2.804c-0.035-0.333-0.181-0.622-0.438-0.869c-0.259-0.246-0.795-0.37-1.609-0.37h-0.36v-0.791
				H229.674z"/>
			<path fill="none" stroke="#1E417D" stroke-width="2" stroke-miterlimit="10" d="M245.909,118.409h-4.249v8.516
				c0,1.308,0.057,2.188,0.172,2.641c0.114,0.453,0.358,0.817,0.731,1.092c0.372,0.275,0.771,0.413,1.195,0.413
				c0.825,0,1.542-0.47,2.15-1.41l0.55,0.326c-0.355,0.758-0.88,1.328-1.573,1.712c-0.694,0.385-1.396,0.576-2.107,0.576
				c-0.826,0-1.552-0.243-2.177-0.73s-1.015-1.059-1.169-1.712c-0.155-0.653-0.232-1.801-0.232-3.44v-7.982h-2.047v-0.791
				c0.939-0.022,1.783-0.418,2.528-1.187s1.222-1.847,1.428-3.234h0.551v4.421h4.249V118.409z"/>
			<path fill="none" stroke="#1E417D" stroke-width="2" stroke-miterlimit="10" d="M255.711,117.051v9.822
				c0,1.503,0.022,2.449,0.068,2.839s0.213,0.688,0.499,0.895c0.287,0.206,0.797,0.31,1.531,0.31h0.361v0.791h-7.586v-0.791h0.585
				c0.813,0,1.344-0.118,1.591-0.353c0.246-0.235,0.39-0.517,0.43-0.844c0.04-0.326,0.061-1.275,0.061-2.847v-4.266
				c0-1.651-0.077-2.661-0.232-3.028c-0.154-0.366-0.361-0.596-0.619-0.688s-0.708-0.138-1.351-0.138h-0.464v-0.792
				c2.041-0.206,3.623-0.51,4.747-0.911H255.711z M252.391,109.86c0-0.493,0.175-0.918,0.525-1.273
				c0.35-0.355,0.771-0.533,1.264-0.533s0.912,0.178,1.256,0.533s0.517,0.78,0.517,1.273c0,0.505-0.173,0.935-0.517,1.29
				s-0.763,0.533-1.256,0.533s-0.914-0.178-1.264-0.533C252.565,110.795,252.391,110.365,252.391,109.86z"/>
			<path fill="none" stroke="#1E417D" stroke-width="2" stroke-miterlimit="10" d="M263.673,124.637c0-2.156,0.723-3.959,2.167-5.41
				c1.445-1.45,3.223-2.176,5.333-2.176c2.121,0,3.905,0.729,5.35,2.185c1.445,1.457,2.168,3.257,2.168,5.401
				c0,2.374-0.734,4.24-2.202,5.6s-3.24,2.038-5.315,2.038c-2.076,0-3.845-0.69-5.307-2.072
				C264.403,128.82,263.673,126.965,263.673,124.637z M266.528,124.723c0,2.5,0.407,4.252,1.222,5.256
				c0.813,1.003,1.955,1.505,3.423,1.505c1.502,0,2.651-0.502,3.449-1.505c0.797-1.004,1.195-2.756,1.195-5.256
				c0-2.477-0.396-4.243-1.187-5.298c-0.792-1.056-1.944-1.583-3.458-1.583c-1.503,0-2.652,0.524-3.449,1.574
				C266.927,120.465,266.528,122.234,266.528,124.723z"/>
			<path fill="none" stroke="#1E417D" stroke-width="2" stroke-miterlimit="10" d="M288.354,117.051h0.465
				c0.264,0.711,0.413,1.68,0.447,2.907c0.826-0.975,1.691-1.703,2.598-2.185c0.906-0.482,1.852-0.723,2.838-0.723
				c1.124,0,2.045,0.235,2.762,0.705c0.717,0.471,1.178,1.047,1.385,1.729c0.206,0.683,0.31,1.678,0.31,2.985v4.403
				c0,1.629,0.028,2.621,0.086,2.977s0.237,0.622,0.542,0.8c0.304,0.178,0.862,0.267,1.677,0.267v0.791h-7.208v-0.791h0.327
				c0.826,0,1.365-0.121,1.617-0.361c0.252-0.241,0.396-0.521,0.43-0.843c0.035-0.321,0.052-1.268,0.052-2.839v-4.541
				c0-1.112-0.055-1.907-0.163-2.383c-0.109-0.476-0.401-0.897-0.877-1.265c-0.477-0.366-1.081-0.55-1.815-0.55
				c-0.837,0-1.637,0.249-2.399,0.748s-1.482,1.247-2.159,2.245v5.745c0,1.629,0.031,2.621,0.095,2.977
				c0.062,0.355,0.246,0.622,0.551,0.8c0.304,0.178,0.868,0.267,1.694,0.267v0.791h-7.122v-0.791c0.791,0,1.342-0.08,1.651-0.241
				c0.31-0.16,0.502-0.404,0.576-0.731c0.074-0.326,0.112-1.35,0.112-3.07v-4.197c0-1.64-0.032-2.635-0.095-2.984
				c-0.063-0.35-0.247-0.613-0.551-0.792c-0.304-0.177-0.868-0.267-1.694-0.267v-0.791
				C285.745,117.704,287.035,117.44,288.354,117.051z"/>
			<path fill="none" stroke="#1E417D" stroke-width="2" stroke-miterlimit="10" d="M307.17,132.154v-4.627h0.671
				c0.78,2.672,2.173,4.008,4.181,4.008c0.871,0,1.521-0.264,1.952-0.791c0.43-0.527,0.645-1.107,0.645-1.738
				c0-0.733-0.229-1.336-0.688-1.806c-0.471-0.471-1.382-1.038-2.735-1.703c-1.422-0.699-2.442-1.388-3.062-2.064
				c-0.62-0.665-0.93-1.485-0.93-2.46c0-0.929,0.333-1.814,0.998-2.657c0.665-0.844,1.6-1.265,2.804-1.265
				c1.228,0,2.242,0.499,3.045,1.496c0.172-0.172,0.396-0.59,0.671-1.256h0.637v4.353h-0.637c-0.229-1.043-0.674-1.94-1.333-2.692
				c-0.659-0.751-1.437-1.126-2.331-1.126c-0.688,0-1.244,0.212-1.669,0.636c-0.424,0.425-0.636,0.918-0.636,1.479
				c0,0.619,0.234,1.152,0.705,1.6c0.458,0.459,1.336,0.98,2.632,1.565c1.949,0.884,3.143,1.744,3.578,2.581
				c0.436,0.849,0.653,1.663,0.653,2.442c0,1.228-0.404,2.225-1.213,2.993c-0.808,0.769-1.826,1.152-3.053,1.152
				c-1.296,0-2.449-0.533-3.458-1.6c-0.31,0.344-0.562,0.837-0.757,1.479H307.17z"/>
		</g>
	</g>
</g>
<g id="ARROW_1_">
	<path d="M248.635,87.241h12.58c0,0,1.86-3.94,7.221-3.752c7.314,0.189,20.305,1.072,38.15,3.027
		c12.297,1.45,14.252,1.765,14.252,1.765c-5.171,0.757-16.396,2.839-27.368,3.784c-10.972,0.945-19.107,1.892-25.917,1.45
		c-3.973-0.189-5.297-1.892-6.369-3.153c-2.774,0-12.611-0.063-12.611-0.063L248.635,87.241z"/>
	<path fill="#FFFFFF" d="M263.075,88.407c0-2.27,0.82-3.973,5.675-3.909c4.856,0.063,32.477,1.388,45.593,3.783
		C305.515,88.597,284.957,89.228,263.075,88.407z"/>
</g>
<g id="LINE">
	<rect x="1.168" y="87.333" width="184.333" height="3"/>
</g>
<g id="Layer_4">
</g>
</svg>
