<?xml version="1.0" encoding="utf-8"?>
<!-- Generator: Adobe Illustrator 15.0.2, SVG Export Plug-In . SVG Version: 6.00 Build 0)  -->
<!DOCTYPE svg PUBLIC "-//W3C//DTD SVG 1.1//EN" "http://www.w3.org/Graphics/SVG/1.1/DTD/svg11.dtd">
<svg version="1.1" xmlns="http://www.w3.org/2000/svg" xmlns:xlink="http://www.w3.org/1999/xlink" x="0px" y="0px" width="147px"
	 height="109px" viewBox="0 0 147 109" enable-background="new 0 0 147 109" xml:space="preserve">
<g id="Layer_2" display="none">
	<rect x="-99" y="-48" display="inline" fill="#15274F" width="304" height="189"/>
</g>
<g id="BOTTOM_RIGHT">
	<g opacity="0.5">
		<path fill="#FFFFFF" d="M8.952,8.824h29.53l26.289,38.173c5.284,8.165,7.923,16.448,7.923,24.849
			c0,8.407-2.819,15.25-8.463,20.527c-5.639,5.284-12.723,7.923-21.248,7.923c-8.519,0-15.604-2.757-21.247-8.283
			c-5.639-5.521-8.463-13.021-8.463-22.508c0-9.481,3.961-16.864,11.884-22.147L8.952,8.824z M75.575,8.824h29.53l26.289,38.173
			c5.284,8.165,7.924,16.448,7.924,24.849c0,8.407-2.82,15.25-8.464,20.527c-5.638,5.284-12.722,7.923-21.247,7.923
			c-8.52,0-15.604-2.757-21.248-8.283c-5.638-5.521-8.462-13.021-8.462-22.508c0-9.481,3.961-16.864,11.884-22.147L75.575,8.824z"/>
	</g>
</g>
<g id="BOTTOM_RIGHT_copy" display="none">
	
		<text transform="matrix(1 0 0 -1 -3.7163 -154.0068)" display="inline" opacity="0.5" fill="#FFFFFF" font-family="'Montserrat-Bold'" font-size="360.1266">“</text>
</g>
</svg>
